<?xml version="1.0" encoding="utf-8"?>
<svg viewBox="0 0 512 512" xmlns="http://www.w3.org/2000/svg">
  <g style="" transform="matrix(1.144362, 0, 0, 1, -35.934628, -4.958409)">
    <path d="M 421.944 243.497 C 443.577 269.164 454.394 297.947 454.394 329.847 C 453.661 366.514 441.104 397.22 416.724 421.967 C 392.337 446.72 362.727 459.097 327.894 459.097 L 183.244 459.097 C 157.577 459.097 142.544 452.13 138.144 438.197 C 135.944 431.964 134.844 422.43 134.844 409.597 L 134.844 104.347 C 134.844 95.547 135.121 89.13 135.674 85.097 C 136.221 81.064 137.961 76.297 140.894 70.797 C 146.027 60.897 160.327 55.947 183.794 55.947 L 322.394 55.947 C 356.127 55.947 384.361 67.68 407.094 91.147 C 430.927 114.98 442.844 143.58 442.844 176.947 C 442.844 201.147 435.877 223.33 421.944 243.497 Z M 357.044 324.347 C 357.044 315.547 356.037 308.58 354.024 303.447 C 352.004 298.314 348.611 294.647 343.844 292.447 C 336.511 289.514 326.244 288.047 313.044 288.047 C 299.844 288.047 289.944 285.48 283.344 280.347 C 276.744 275.214 273.444 264.67 273.444 248.717 C 273.444 232.77 276.837 222.23 283.624 217.097 C 290.404 211.964 301.677 209.397 317.444 209.397 C 332.111 209.397 340.911 205.547 343.844 197.847 C 344.944 193.814 345.494 187.214 345.494 178.047 C 345.494 168.88 342.471 162.464 336.424 158.797 C 330.371 155.13 321.294 153.297 309.194 153.297 L 232.194 153.297 L 232.194 361.747 L 322.394 361.747 C 345.494 361.747 357.044 349.28 357.044 324.347 Z" transform="matrix(1, 0, 0, 1, 0, 0)" style="fill: rgb(237, 69, 81); paint-order: stroke; white-space: pre;"/>
    <path d="M 87.608 448.526 L 87.608 56.526 L 118.968 56.526 L 118.968 448.526 L 87.608 448.526 Z" transform="matrix(1.3841750621795654, 0, 0, 1, -35.49214553833008, -0.5714290142059326)" style="fill: rgb(237, 69, 81); paint-order: stroke; white-space: pre;"/>
    <path d="M 306.963 314.059 L 306.963 54.079 L 327.763 54.079 L 327.763 314.059 L 306.963 314.059 Z" transform="matrix(0, 1, -0.748956024646759, -0.0009030000655911863, 322.7040710449219, -251.08206176757812)" style="fill: rgb(237, 69, 81); paint-order: stroke; white-space: pre;"/>
  </g>
</svg>